<?xml version="1.0" encoding="UTF-8"?>
<!DOCTYPE svg PUBLIC "-//W3C//DTD SVG 1.1//EN" "http://www.w3.org/Graphics/SVG/1.1/DTD/svg11.dtd">
<svg version="1.1" xmlns="http://www.w3.org/2000/svg" xmlns:xlink="http://www.w3.org/1999/xlink" x="0" y="0" width="66.418" height="54.743" viewBox="0, 0, 66.418, 54.743">
  <g>
    <path d="M0.201,25.629 L16.566,25.629 L16.566,21.955 L4.085,21.955 L4.085,14.432 L14.738,14.432 L14.738,10.986 L4.085,10.986 L4.085,3.674 L16.566,3.674 L16.566,0 L0.201,0 z" fill="#35557F"/>
    <path d="M20.222,25.629 L28.923,25.629 Q31.806,25.629 33.792,24.363 Q35.796,23.186 36.921,21.375 Q37.343,20.689 37.642,20.057 Q37.923,19.406 38.064,18.58 Q38.363,16.945 38.363,12.814 Q38.363,8.93 38.169,7.348 Q37.923,5.766 36.992,4.324 Q34.39,0.035 29.187,0 L20.222,0 z M24.107,3.674 L28.747,3.674 Q31.701,3.604 33.318,5.836 Q34.109,6.732 34.32,8.174 Q34.478,9.615 34.478,12.955 Q34.478,16.383 34.32,17.631 Q34.144,18.896 33.494,19.723 Q32.017,21.955 28.747,21.955 L24.107,21.955 z" fill="#35557F"/>
    <path d="M43.442,0.086 L54.461,0.086 C55.565,0.086 56.461,0.981 56.461,2.086 L56.461,13.105 C56.461,14.209 55.565,15.105 54.461,15.105 L43.442,15.105 C42.337,15.105 41.442,14.209 41.442,13.105 L41.442,2.086 C41.442,0.981 42.337,0.086 43.442,0.086 z" fill="#ADCF9F"/>
    <path d="M53.326,10.554 L64.344,10.554 C65.449,10.554 66.344,11.45 66.344,12.554 L66.344,23.573 C66.344,24.678 65.449,25.573 64.344,25.573 L53.326,25.573 C52.221,25.573 51.326,24.678 51.326,23.573 L51.326,12.554 C51.326,11.45 52.221,10.554 53.326,10.554 z" fill="#E1B2AF"/>
    <path d="M0,52.736 L0,41.718 C0,40.613 0.895,39.718 2,39.718 L13.019,39.718 C14.123,39.718 15.019,40.613 15.019,41.718 L15.019,52.736 C15.019,53.841 14.123,54.736 13.019,54.736 L2,54.736 C0.895,54.736 0,53.841 0,52.736 z" fill="#9FB1D4"/>
    <path d="M10.469,41.853 L10.469,30.834 C10.469,29.729 11.364,28.834 12.469,28.834 L23.487,28.834 C24.592,28.834 25.487,29.729 25.487,30.834 L25.487,41.853 C25.487,42.957 24.592,43.853 23.487,43.853 L12.469,43.853 C11.364,43.853 10.469,42.957 10.469,41.853 z" fill="#FFC6A7"/>
    <path d="M27.113,45.567 L30.822,34.37 L30.892,34.37 L34.601,45.567 z M37.695,54.743 L41.791,54.743 L32.474,29.114 L29.222,29.114 L19.906,54.743 L24.019,54.743 L25.988,49.013 L35.709,49.013 z" fill="#35557F"/>
    <path d="M44.533,54.743 L48.418,54.743 L48.418,38.765 L48.488,38.765 L53.849,51.069 L57.084,51.069 L62.445,38.765 L62.533,38.765 L62.533,54.743 L66.418,54.743 L66.418,29.114 L62.744,29.114 L55.537,45.813 L48.189,29.114 L44.533,29.114 z" fill="#35557F"/>
  </g>
</svg>
